<svg xmlns="http://www.w3.org/2000/svg" viewBox="0 0 206 206">
  <g fill="none" fill-rule="evenodd">
    <path fill="#E0001B" d="M0 206h206V0H0z"></path>
    <path stroke="#FFF" stroke-width="1.426" d="M63.255 77.699h-3.502c-1.27 0-3.191 0-5.246-.74-3.263-1.178-5.578-3.721-6.516-7.164-.423-1.55-3.909-14.234-6.943-25.221l-2.982 9.664c-2.676 8.675-4.333 14.202-4.713 15.346-2.619 7.901-9.525 7.957-11.86 7.938l-3.727.034m-.16-15.228l2.203.003S31.01 26.05 31.747 23.9c.811-2.363 3.372-7.859 9.641-7.859 6.699 0 9.027 6.15 9.582 8.035.934 3.175 8.095 29.195 10.67 38.567h1.582M146.79 77.73s-1.095.006-3.474.006c-2.283 0-9.228 0-11.86-7.946-1.012-3.052-4.576-14.644-7.719-24.907l-3.1 11.34c-2.215 8.104-3.587 13.116-3.844 14.02-1.332 4.673-5.264 7.815-9.778 7.815M67.343 62.666l1.684.02c.882-2.851 2.379-7.742 3.938-12.833 4.222-13.788 7.268-23.714 8.003-25.859 2.225-6.498 6.471-8.015 9.64-8.015 2.695 0 7.524 1.195 9.582 8.187.633 2.151 3.926 14.071 6.845 24.72 2.938-10.748 6.191-22.633 6.805-24.72 2.13-7.251 7.41-8.034 9.581-8.034 2.682 0 7.498 1.008 9.64 7.759.075.237.644 2.103 1.51 4.936 2.562 8.386 8.13 26.615 10.414 33.853 1.3-.001 1.792.008 1.799.008m-39.77 15.369c-4.64 0-8.692-3.332-9.854-8.103-.317-1.302-3.517-14.118-6.573-25.225-.994 3.232-2.009 6.549-2.922 9.532-2.717 8.872-4.706 14.368-5.09 15.529-2.631 7.939-9.312 7.939-11.828 7.939l-3.365.035m108.593-46.602H165.56a2.602 2.602 0 0 0-2.599 2.6c0 1.269.855 2.136 1.72 2.448l11.348 3.414.132.041a19.425 19.425 0 0 1 13.525 18.557c0 10.747-8.743 19.49-19.49 19.49l-19.777.018m0-15.11l19.775.038a4.44 4.44 0 0 0 4.44-4.436 4.418 4.418 0 0 0-3.025-4.207l-11.39-3.428a17.622 17.622 0 0 1-12.31-16.826c0-9.735 7.918-17.653 17.65-17.653h10.417"></path>
    <path stroke="#FFF" stroke-linejoin="round" stroke-width="1.426" d="M17.397 70.024l4.144-.034c2.251.001 3.835-.017 4.75-2.78.907-2.74 11.22-37.121 12.507-40.873.628-1.83 1.384-2.773 2.52-2.773 1.136 0 1.838.857 2.36 2.63 1.071 3.643 10.862 39.257 11.504 41.615.644 2.357 2.68 2.357 4.502 2.357h3.546m83.57-.12s-.89.004-3.248.004c-2.252 0-3.8-.022-4.716-2.785-1.813-5.469-12.387-40.217-12.714-41.256-.64-2.017-1.302-2.508-2.465-2.508-1.165 0-1.84.858-2.36 2.63-1.073 3.645-10.985 39.229-11.658 41.58-.408 1.435-1.476 2.357-2.54 2.357-1.067 0-2.193-.922-2.542-2.358-.578-2.374-10.435-37.934-11.506-41.579-.522-1.77-1.033-2.63-2.36-2.63-1.328 0-1.892.943-2.52 2.776-1.287 3.751-11.598 38.248-12.507 40.988-.915 2.763-2.432 2.78-4.681 2.78l-3.64-.004m83.11-.008l19.978-.005c6.607 0 11.963-5.355 11.963-11.963 0-5.33-3.484-9.845-8.3-11.39L162.62 43.22c-4.037-1.331-6.951-5.135-6.951-9.619 0-5.593 4.534-10.126 10.125-10.126h10.148"></path>
    <path fill="#FFF" d="M16.953 179.777c.057 3.341 2.548 4.812 5.624 4.812 2.68 0 5.36-1.208 5.36-4.227 0-1.397-.848-2.906-2.622-3.437-.7-.206-3.681-.981-3.889-1.036-.963-.265-1.604-.794-1.604-1.738 0-1.359 1.378-1.754 2.472-1.754 1.624 0 2.794.641 2.907 2.377h2.36c0-2.811-2.36-4.303-5.172-4.303-2.435 0-4.926 1.266-4.926 3.964 0 1.397.68 2.793 2.982 3.417 1.849.51 3.076.755 4.02 1.113.548.207 1.113.622 1.113 1.662 0 1.017-.774 2.037-2.85 2.037-1.887 0-3.415-.81-3.415-2.887h-2.36zm18.78-9.306c-4.04 0-6.456 3.21-6.456 7.06 0 3.849 2.416 7.058 6.455 7.058 4.04 0 6.455-3.21 6.455-7.059s-2.416-7.059-6.455-7.059zm0 1.926c2.887 0 4.095 2.548 4.095 5.133 0 2.586-1.208 5.134-4.096 5.134-2.887 0-4.095-2.548-4.095-5.134 0-2.585 1.208-5.133 4.095-5.133zm8.606 11.872h9.21v-2.04H46.7v-11.436h-2.36v13.476zm10.683-4.851c0 3.453 2.209 5.171 5.53 5.171 3.322 0 5.53-1.718 5.53-5.171v-8.625h-2.359v7.85c0 1.813-.113 3.907-3.17 3.907-3.058 0-3.171-2.094-3.171-3.907v-7.85h-2.36v8.625zm12.495-6.587h4.265v11.438h2.359v-11.438h4.285v-2.038h-10.91v2.038zm12.475 11.438h2.36v-13.476h-2.36v13.476zm10.985-13.798c-4.04 0-6.455 3.21-6.455 7.06 0 3.849 2.416 7.058 6.455 7.058s6.455-3.21 6.455-7.059-2.416-7.059-6.455-7.059zm0 1.926c2.888 0 4.096 2.548 4.096 5.133 0 2.586-1.208 5.134-4.096 5.134-2.887 0-4.095-2.548-4.095-5.134 0-2.585 1.208-5.133 4.095-5.133zm8.513 11.872h2.245v-9.91h.057l6.134 9.91h2.491v-13.476h-2.245v9.928h-.038l-6.153-9.928H99.49v13.476zm12.909-4.492c.057 3.341 2.548 4.812 5.624 4.812 2.68 0 5.36-1.208 5.36-4.227 0-1.397-.848-2.906-2.622-3.437-.7-.206-3.681-.981-3.889-1.036-.963-.265-1.604-.794-1.604-1.738 0-1.359 1.378-1.754 2.473-1.754 1.623 0 2.793.641 2.906 2.377h2.36c0-2.811-2.36-4.303-5.173-4.303-2.434 0-4.925 1.266-4.925 3.964 0 1.397.68 2.793 2.982 3.417 1.85.51 3.076.755 4.02 1.113.548.207 1.114.622 1.114 1.662 0 1.017-.775 2.037-2.85 2.037-1.888 0-3.416-.81-3.416-2.887h-2.36zM17.727 163.755h2.246v-10.4h.038l3.737 10.4h1.944l3.737-10.4h.038v10.4h2.245v-13.476H28.43l-3.625 10.55h-.037l-3.718-10.55h-3.322v13.476zm16.816 0h9.834v-2.039h-7.474v-3.944h6.795v-1.925h-6.795v-3.529h7.342v-2.04h-9.702v13.477zm10.608-11.437h4.265v11.437h2.36v-11.437h4.284v-2.04H45.15v2.04zm14.835-.114h3.83c1.228 0 2.341.34 2.341 2.058 0 1.415-.81 2.151-2.302 2.151h-3.87v-4.21zm-2.36 11.55h2.36v-5.548h3.473c2.17 0 2.68 1.095 2.68 3.568 0 .66 0 1.396.358 1.98h2.53c-.51-.546-.736-1.98-.736-3.547 0-2.133-1.19-2.737-2.001-2.85v-.038c.434-.15 2.227-.812 2.227-3.397 0-2.284-1.51-3.643-4.454-3.643h-6.437v13.476zm19.025-13.796c-4.039 0-6.455 3.21-6.455 7.06 0 3.85 2.416 7.058 6.455 7.058 4.04 0 6.455-3.208 6.455-7.059 0-3.849-2.415-7.059-6.455-7.059zm0 1.925c2.889 0 4.097 2.548 4.097 5.134 0 2.586-1.208 5.134-4.097 5.134-2.887 0-4.095-2.548-4.095-5.134 0-2.586 1.208-5.134 4.095-5.134zm10.967.32h3.491c1.246 0 2.322.454 2.322 2.228 0 1.699-1.303 2.227-2.36 2.227h-3.453v-4.454zm-2.36 11.552h2.36v-5.172h3.586c3.85.02 4.586-2.472 4.586-4.133 0-1.68-.736-4.171-4.586-4.171h-5.946v13.476zm18.328-13.797c-4.04 0-6.455 3.21-6.455 7.06 0 3.85 2.416 7.058 6.455 7.058s6.455-3.208 6.455-7.059c0-3.849-2.416-7.059-6.455-7.059zm0 1.925c2.887 0 4.095 2.548 4.095 5.134 0 2.586-1.208 5.134-4.095 5.134-2.889 0-4.097-2.548-4.097-5.134 0-2.586 1.208-5.134 4.097-5.134zm8.606 11.872h9.21v-2.039h-6.85V150.28h-2.36v13.476zm10.833 0h2.36v-13.476h-2.36v13.476zm3.964-11.437h4.265v11.437h2.36v-11.437h4.284v-2.04h-10.91v2.04zm15.557.283H142.602l2.02 5.794h-4.115l2.039-5.794zm-6.38 11.154h2.434l1.265-3.567h5.379l1.265 3.567h2.53l-5.192-13.476h-2.51l-5.171 13.476zm14.06 0h2.246v-9.91h.058l6.133 9.91h2.492v-13.476h-2.246v9.928h-.038l-6.153-9.928h-2.491v13.476zM22.578 132.087H22.634l2.02 5.794h-4.115l2.039-5.794zm-6.38 11.154h2.434l1.265-3.567h5.38l1.264 3.567h2.53l-5.192-13.474h-2.51L16.2 143.24zm16.515-11.551h2.322c3.699 0 4.492 2.114 4.492 4.814s-.793 4.813-4.492 4.813h-2.322v-9.627zm-2.36 11.55h5.588c4.152 0 5.945-3.019 5.945-6.736 0-3.72-1.793-6.737-5.945-6.737h-5.587v13.474zm16.59 0h2.625l4.605-13.473h-2.397l-3.454 10.662h-.038l-3.379-10.662h-2.453l4.492 13.474zm12.346-11.153H59.346l2.019 5.794H57.25l2.039-5.794zm-6.38 11.154h2.436l1.264-3.567h5.38l1.263 3.567h2.53l-5.19-13.474H58.08l-5.172 13.474zm14.062 0h2.246v-9.909h.057l6.133 9.909H77.9v-13.474h-2.246v9.927h-.037l-6.153-9.927H66.97v13.474zm25.177-9.191c-.282-2.907-2.68-4.587-5.718-4.606-4.04 0-6.455 3.209-6.455 7.06 0 3.85 2.416 7.06 6.455 7.06 3.265 0 5.55-2.229 5.738-5.457h-2.303c-.189 1.963-1.34 3.53-3.435 3.53-2.888 0-4.096-2.548-4.096-5.133 0-2.587 1.208-5.135 4.096-5.135 1.963 0 2.963 1.133 3.36 2.68h2.358zm2.17 9.19h9.835v-2.038h-7.475v-3.944h6.795v-1.925h-6.795v-3.53h7.342v-2.036h-9.702v13.474zm14.251-11.55h2.321c3.7 0 4.492 2.114 4.492 4.814s-.793 4.813-4.492 4.813h-2.32v-9.627zm-2.36 11.55h5.587c4.152 0 5.946-3.019 5.946-6.736 0-3.72-1.794-6.737-5.946-6.737h-5.587v13.474zM17.783 122.728h1.283v-13.476h-1.283v13.476zm4.55 0h1.283v-11.4h.037l7.852 11.4h1.435v-13.476h-1.284v11.4h-.038l-7.851-11.4h-1.435v13.476zm13.097-4.436c-.151 3.284 2.19 4.719 5.38 4.719 4.774 0 5.152-2.925 5.152-3.85 0-2.208-1.586-3.039-3.491-3.549l-3.285-.81c-1.094-.265-2.038-.794-2.038-2.059 0-2 1.623-2.68 3.378-2.68 1.907 0 3.605 1.039 3.681 3.096h1.283c.019-2.756-2.322-4.19-4.982-4.19-3.795 0-4.644 2.472-4.644 3.794 0 2.094 1.453 2.85 3.039 3.246l3.001.736c1.246.302 2.774.906 2.774 2.435 0 1.963-2.151 2.736-3.566 2.736-2.454 0-4.455-.849-4.399-3.624H35.43zm11.589-7.945h4.7v12.381h1.283v-12.381h4.7v-1.095H47.019v1.095zm12.514 12.381h1.283v-13.476h-1.283v13.476zm3.114-12.381h4.7v12.381h1.283v-12.381h4.7v-1.095H62.647v1.095zm12.287 7.53c0 2.775 1.49 5.134 5.228 5.134 3.757 0 5.247-2.359 5.247-5.134v-8.625h-1.283v8.343c.02 3.133-1.473 4.321-3.964 4.321-2.472 0-3.964-1.188-3.944-4.321v-8.343h-1.284v8.625zm12.079-7.53h4.7v12.381h1.284v-12.381h4.699v-1.095H87.013v1.095zm12.42 12.381h9.399v-1.094h-8.116v-5.323h7.512v-1.095h-7.512v-4.87h8.022v-1.094h-9.306v13.476zm17.383 0h1.283v-6.417h6.456v-1.095h-6.456v-4.87h7.267v-1.094h-8.55v13.476zm9.89-6.738c0 3.68 2.114 7.02 6.36 7.02 4.228 0 6.342-3.34 6.342-7.02 0-3.68-2.114-7.022-6.342-7.022-4.246 0-6.36 3.342-6.36 7.022zm1.284 0c0-2.945 1.51-5.927 5.076-5.927 3.549 0 5.059 2.982 5.059 5.927 0 2.944-1.51 5.926-5.059 5.926-3.566 0-5.076-2.982-5.076-5.926zm13.89 6.738h1.284v-5.983h4.87c2.434-.094 2.585 2 2.699 3.888.037.566.037 1.567.358 2.095h1.416c-.566-.68-.566-2.529-.624-3.454-.093-1.604-.604-2.812-2.358-3.038v-.038c1.736-.34 2.623-1.737 2.623-3.435 0-2.436-1.868-3.51-4.095-3.51h-6.173v13.475zm1.284-12.381h4.794c1.925 0 2.906 1.037 2.906 2.68 0 1.641-1.34 2.623-2.906 2.623h-4.794v-5.303zM16.198 102.215h1.377l1.625-4.19h6.133l1.643 4.19h1.377l-5.285-13.477h-1.434l-5.436 13.477zm6.096-12.193L24.9 96.93h-5.305l2.699-6.908zm7.72 12.193h1.284V90.57h.037l4.624 11.645h1.208l4.605-11.645h.038v11.645h1.283V88.738h-1.887l-4.643 11.816-4.661-11.816h-1.888v13.477zm15.553-4.435c-.151 3.283 2.189 4.718 5.378 4.718 4.776 0 5.153-2.926 5.153-3.85 0-2.209-1.585-3.04-3.492-3.55l-3.284-.81c-1.095-.265-2.038-.793-2.038-2.058 0-2 1.623-2.68 3.379-2.68 1.905 0 3.604 1.038 3.68 3.096h1.283c.02-2.756-2.321-4.191-4.983-4.191-3.793 0-4.643 2.473-4.643 3.794 0 2.096 1.454 2.85 3.04 3.246l3 .737c1.246.302 2.775.906 2.775 2.434 0 1.963-2.152 2.737-3.568 2.737-2.453 0-4.454-.85-4.397-3.623h-1.283zm11.587-7.947h4.7v12.382h1.284V89.833h4.7v-1.095H57.153v1.095zm12.42 12.382h9.4v-1.095h-8.117v-5.323h7.512v-1.094h-7.512v-4.87h8.022v-1.095h-9.305v13.477zm11.664 0h1.283v-5.983h4.87c2.435-.095 2.586 2 2.7 3.887.037.566.037 1.567.358 2.096h1.416c-.566-.68-.566-2.53-.624-3.455-.093-1.604-.604-2.812-2.358-3.038v-.038c1.736-.34 2.623-1.736 2.623-3.435 0-2.434-1.868-3.51-4.096-3.51h-6.172v13.476zm1.283-12.382h4.795c1.925 0 2.906 1.039 2.906 2.68 0 1.642-1.34 2.624-2.906 2.624H82.52v-5.304zm13.061 0h2.738c3.869-.018 5.549 1.623 5.549 5.644 0 4.02-1.68 5.662-5.55 5.643h-2.737V89.833zM94.3 102.215h4.663c4.057-.094 6.19-2.321 6.19-6.738 0-4.416-2.133-6.645-6.19-6.739h-4.663v13.477zm11.91 0h1.378l1.623-4.19h6.134l1.642 4.19h1.378l-5.284-13.477h-1.435l-5.436 13.477zm6.096-12.193l2.605 6.908h-5.303l2.698-6.908zm7.72 12.193h1.283V90.57h.037l4.625 11.645h1.208l4.605-11.645h.038v11.645h1.284V88.738h-1.888l-4.643 11.816-4.662-11.816h-1.888v13.477z"></path>
  </g>
</svg>
